<?xml version="1.0" standalone="no"?>
<!DOCTYPE svg PUBLIC "-//W3C//DTD SVG 20010904//EN"
 "http://www.w3.org/TR/2001/REC-SVG-20010904/DTD/svg10.dtd">
<svg version="1.0" xmlns="http://www.w3.org/2000/svg"
 width="653.000000pt" height="299.000000pt" viewBox="0 0 653.000000 299.000000"
 preserveAspectRatio="xMidYMid meet">

<g transform="translate(0.000000,299.000000) scale(0.100000,-0.100000)"
fill="#000000" stroke="none">
<path d="M0 1495 l0 -1495 3265 0 3265 0 0 1495 0 1495 -3265 0 -3265 0 0
-1495z m5231 563 c162 -268 261 -423 271 -423 7 0 77 111 157 248 l145 247 93
0 c51 0 93 -3 93 -6 0 -3 -53 -92 -119 -197 -65 -106 -155 -251 -199 -324
l-81 -131 199 -324 200 -323 -92 -3 c-52 -2 -96 2 -101 7 -6 6 -76 117 -157
248 -80 131 -150 237 -155 236 -6 -1 -75 -113 -153 -248 l-144 -245 -94 0
c-87 0 -94 1 -85 18 5 9 95 156 199 326 l189 309 -62 101 c-182 295 -335 546
-335 551 0 3 42 5 94 5 l94 0 43 -72z m-4613 49 c6 -7 101 -215 212 -462 257
-575 262 -585 269 -585 4 0 59 118 123 263 65 144 171 381 236 527 l118 265
92 3 92 3 0 -651 0 -650 -85 0 -85 0 0 472 c0 295 -4 468 -9 462 -9 -8 -153
-327 -347 -764 l-73 -165 -62 0 -63 0 -150 336 c-83 185 -161 358 -173 385
-12 27 -37 83 -55 125 -18 41 -37 76 -43 77 -7 1 -10 -158 -10 -463 l0 -465
-87 0 -88 0 0 643 c0 354 3 647 7 650 12 13 170 8 181 -6z m3962 -127 l0 -130
135 0 136 0 -3 -72 -3 -73 -133 -3 -133 -3 3 -332 c3 -347 5 -364 48 -384 8
-4 60 -10 115 -13 l100 -5 3 -74 3 -73 -133 4 c-124 3 -137 6 -186 33 -114 62
-122 97 -122 516 l0 328 -62 3 -63 3 -3 73 -3 72 66 0 65 0 0 123 c0 68 3 127
7 130 3 4 42 7 85 7 l78 0 0 -130z m-1951 -131 c145 -33 277 -151 326 -289 23
-65 37 -177 29 -237 l-6 -53 -409 0 c-465 0 -423 10 -393 -90 43 -145 162
-230 320 -230 121 0 216 52 265 144 l24 46 87 0 c102 0 103 -1 61 -87 -31 -63
-98 -137 -158 -175 -179 -111 -451 -94 -612 38 -161 132 -223 404 -144 630 52
148 170 258 321 300 55 15 229 17 289 3z m1176 -4 c165 -43 294 -181 331 -354
14 -68 19 -177 8 -205 -5 -14 -51 -16 -416 -16 l-409 0 7 -37 c30 -168 140
-269 304 -280 135 -10 235 38 296 143 l26 44 84 0 c98 0 100 -4 59 -87 -90
-181 -288 -273 -520 -243 -201 26 -363 173 -410 371 -19 81 -19 226 0 307 42
177 168 311 336 356 72 20 230 20 304 1z"/>
<path d="M2415 1714 c-97 -25 -175 -85 -213 -166 -17 -35 -33 -80 -37 -100
l-6 -38 327 0 327 0 -7 48 c-14 106 -97 210 -194 241 -41 13 -166 23 -197 15z"/>
<path d="M3555 1707 c-68 -23 -101 -44 -146 -95 -45 -50 -79 -125 -79 -174 l0
-28 320 0 320 0 0 28 c0 95 -70 201 -163 247 -65 31 -190 42 -252 22z"/>
</g>
</svg>
